<?xml version="1.0"?><svg id="Layer_1" style="enable-background:new 0 0 512 512;" version="1.1" viewBox="0 0 512 512" xml:space="preserve" xmlns="http://www.w3.org/2000/svg" xmlns:xlink="http://www.w3.org/1999/xlink"><style type="text/css">
	.st0{fill:#209E48;}
	.st1{fill-rule:evenodd;clip-rule:evenodd;fill:#FFFFFF;}
</style><g><path class="st0" d="M512,397.1c0,63.5-51.5,114.9-114.9,114.9H114.9C51.5,512,0,460.5,0,397.1V114.9C0,51.5,51.5,0,114.9,0h282.2   C460.5,0,512,51.5,512,114.9V397.1z"/><g><path class="st1" d="M125.8,386.9c1.5-5.7,2.7-10.6,4.1-15.5c4.3-15.7,8.7-31.4,12.8-47.2c0.6-2.3,0.3-5.5-0.8-7.6    c-40-76.2,1.3-168.3,85.1-188c76.1-17.9,144.6,33.5,157.1,102.2c13,71.7-33.9,139.7-105,152.2c-28.3,4.9-55.3,0.7-81.1-11.8    c-2.3-1.1-5.5-1.4-8-0.8C155.6,379.1,132.7,385.5,125.8,386.9z M156,357.1c12.9-3.4,24.8-6.4,36.7-9.7c3.3-0.9,5.9-0.4,8.9,1.3    c22.3,12.9,46.3,17.7,71.9,13.6c58.9-9.4,99.3-64.6,90.3-123.3c-9.4-60.9-66.4-101.7-126.7-90.6c-72.9,13.4-111.7,94.7-75.4,159.1    c4,7.1,5.1,13,2.4,20.6C160.8,337.2,158.8,346.7,156,357.1z"/><path class="st1" d="M290.2,317.2c-25.4-0.9-65.7-20.9-93.4-69c-9.8-17.1-8.4-36.5,6-49.9c4.9-4.5,11-3.4,16.7-2.5    c1.4,0.2,2.9,2.4,3.6,4c3.7,8.4,7.3,16.8,10.5,25.3c1.7,4.6-1.4,8.8-8,16.3c-2.1,2.4-2.5,4.6-0.9,7.4c10.6,18,25.5,31.1,45,38.7    c2.9,1.1,5,0.4,6.8-1.8c10.4-12.6,11.4-16.3,16.9-13.8c26.2,12.6,28.3,13.1,28.4,16C322.8,310.2,302.5,318.1,290.2,317.2z"/></g></g></svg>